<mxfile host="app.diagrams.net" agent="Mozilla/5.0 (Windows NT 10.0; Win64; x64) AppleWebKit/537.36 (KHTML, like Gecko) Chrome/131.0.0.0 Safari/537.36" version="26.0.3">
  <diagram name="Page-1" id="M2MdSR7mgqWkv3h3r15_">
    <mxGraphModel dx="1518" dy="1765" grid="1" gridSize="10" guides="1" tooltips="1" connect="1" arrows="1" fold="1" page="1" pageScale="1" pageWidth="850" pageHeight="1100" math="0" shadow="0">
      <root>
        <mxCell id="0" />
        <mxCell id="1" parent="0" />
        <mxCell id="SFmNFA9izupW87xvtLE3-33" value="" style="whiteSpace=wrap;html=1;aspect=fixed;" vertex="1" parent="1">
          <mxGeometry x="20" y="-110" width="700" height="700" as="geometry" />
        </mxCell>
        <mxCell id="SFmNFA9izupW87xvtLE3-3" value="" style="rounded=0;whiteSpace=wrap;html=1;" vertex="1" parent="1">
          <mxGeometry x="50" y="320" width="620" height="223" as="geometry" />
        </mxCell>
        <mxCell id="SFmNFA9izupW87xvtLE3-4" value="Endpoint" style="text;html=1;align=center;verticalAlign=middle;whiteSpace=wrap;rounded=0;" vertex="1" parent="1">
          <mxGeometry x="335" y="327.5" width="60" height="30" as="geometry" />
        </mxCell>
        <mxCell id="SFmNFA9izupW87xvtLE3-5" value="" style="rounded=0;whiteSpace=wrap;html=1;" vertex="1" parent="1">
          <mxGeometry x="50" y="-80" width="620" height="310" as="geometry" />
        </mxCell>
        <mxCell id="SFmNFA9izupW87xvtLE3-6" value="Server" style="text;html=1;align=center;verticalAlign=middle;whiteSpace=wrap;rounded=0;" vertex="1" parent="1">
          <mxGeometry x="316.25" y="-70" width="60" height="30" as="geometry" />
        </mxCell>
        <mxCell id="SFmNFA9izupW87xvtLE3-8" value="Wazuh server" style="label;whiteSpace=wrap;html=1;image=https://tryhackme-images.s3.amazonaws.com/room-icons/dab38a8c03e9e6ba3232ded19228f037.jpeg;" vertex="1" parent="1">
          <mxGeometry x="90" y="-30" width="450" height="230" as="geometry" />
        </mxCell>
        <mxCell id="SFmNFA9izupW87xvtLE3-9" value="" style="strokeWidth=2;html=1;shape=mxgraph.flowchart.database;whiteSpace=wrap;" vertex="1" parent="1">
          <mxGeometry x="583.13" y="-30" width="73.75" height="75" as="geometry" />
        </mxCell>
        <mxCell id="SFmNFA9izupW87xvtLE3-10" value="Dashboard" style="rounded=0;whiteSpace=wrap;html=1;" vertex="1" parent="1">
          <mxGeometry x="250" y="-15" width="120" height="60" as="geometry" />
        </mxCell>
        <mxCell id="SFmNFA9izupW87xvtLE3-21" style="edgeStyle=orthogonalEdgeStyle;rounded=0;orthogonalLoop=1;jettySize=auto;html=1;exitX=0.5;exitY=0;exitDx=0;exitDy=0;entryX=0.5;entryY=1;entryDx=0;entryDy=0;" edge="1" parent="1" source="SFmNFA9izupW87xvtLE3-11" target="SFmNFA9izupW87xvtLE3-10">
          <mxGeometry relative="1" as="geometry" />
        </mxCell>
        <mxCell id="SFmNFA9izupW87xvtLE3-11" value="Manager" style="rounded=0;whiteSpace=wrap;html=1;" vertex="1" parent="1">
          <mxGeometry x="250" y="120" width="120" height="60" as="geometry" />
        </mxCell>
        <mxCell id="SFmNFA9izupW87xvtLE3-18" style="edgeStyle=orthogonalEdgeStyle;rounded=0;orthogonalLoop=1;jettySize=auto;html=1;shape=link;" edge="1" parent="1" source="SFmNFA9izupW87xvtLE3-12" target="SFmNFA9izupW87xvtLE3-15">
          <mxGeometry relative="1" as="geometry" />
        </mxCell>
        <mxCell id="SFmNFA9izupW87xvtLE3-20" style="edgeStyle=orthogonalEdgeStyle;rounded=0;orthogonalLoop=1;jettySize=auto;html=1;entryX=1;entryY=0.5;entryDx=0;entryDy=0;shape=link;" edge="1" parent="1" source="SFmNFA9izupW87xvtLE3-12" target="SFmNFA9izupW87xvtLE3-11">
          <mxGeometry relative="1" as="geometry">
            <Array as="points">
              <mxPoint x="450" y="150" />
            </Array>
          </mxGeometry>
        </mxCell>
        <mxCell id="SFmNFA9izupW87xvtLE3-12" value="Integration" style="rounded=0;whiteSpace=wrap;html=1;" vertex="1" parent="1">
          <mxGeometry x="395" y="55" width="120" height="60" as="geometry" />
        </mxCell>
        <mxCell id="SFmNFA9izupW87xvtLE3-28" style="edgeStyle=orthogonalEdgeStyle;rounded=0;orthogonalLoop=1;jettySize=auto;html=1;" edge="1" parent="1" source="SFmNFA9izupW87xvtLE3-13" target="SFmNFA9izupW87xvtLE3-11">
          <mxGeometry relative="1" as="geometry" />
        </mxCell>
        <mxCell id="SFmNFA9izupW87xvtLE3-13" value="Wazuh Agent" style="label;whiteSpace=wrap;html=1;image=https://tryhackme-images.s3.amazonaws.com/room-icons/dab38a8c03e9e6ba3232ded19228f037.jpeg;" vertex="1" parent="1">
          <mxGeometry x="80" y="357.5" width="280" height="161" as="geometry" />
        </mxCell>
        <mxCell id="SFmNFA9izupW87xvtLE3-32" style="edgeStyle=orthogonalEdgeStyle;rounded=0;orthogonalLoop=1;jettySize=auto;html=1;entryX=1;entryY=0.5;entryDx=0;entryDy=0;shape=link;" edge="1" parent="1" source="SFmNFA9izupW87xvtLE3-14" target="SFmNFA9izupW87xvtLE3-30">
          <mxGeometry relative="1" as="geometry" />
        </mxCell>
        <mxCell id="SFmNFA9izupW87xvtLE3-14" value="Log" style="rounded=0;whiteSpace=wrap;html=1;" vertex="1" parent="1">
          <mxGeometry x="388.75" y="370" width="126.25" height="60" as="geometry" />
        </mxCell>
        <mxCell id="SFmNFA9izupW87xvtLE3-15" value="" style="shape=image;html=1;verticalAlign=top;verticalLabelPosition=bottom;labelBackgroundColor=#ffffff;imageAspect=0;aspect=fixed;image=https://cdn3.iconfinder.com/data/icons/strokeline/128/25_icons-128.png" vertex="1" parent="1">
          <mxGeometry x="580" y="120" width="80" height="80" as="geometry" />
        </mxCell>
        <mxCell id="SFmNFA9izupW87xvtLE3-19" style="edgeStyle=orthogonalEdgeStyle;rounded=0;orthogonalLoop=1;jettySize=auto;html=1;entryX=0.5;entryY=1;entryDx=0;entryDy=0;entryPerimeter=0;shape=link;" edge="1" parent="1" source="SFmNFA9izupW87xvtLE3-12" target="SFmNFA9izupW87xvtLE3-9">
          <mxGeometry relative="1" as="geometry" />
        </mxCell>
        <mxCell id="SFmNFA9izupW87xvtLE3-24" style="edgeStyle=orthogonalEdgeStyle;rounded=0;orthogonalLoop=1;jettySize=auto;html=1;entryX=1;entryY=0.5;entryDx=0;entryDy=0;shape=link;" edge="1" parent="1" source="SFmNFA9izupW87xvtLE3-22" target="SFmNFA9izupW87xvtLE3-14">
          <mxGeometry relative="1" as="geometry" />
        </mxCell>
        <mxCell id="SFmNFA9izupW87xvtLE3-22" value="Module" style="rounded=0;whiteSpace=wrap;html=1;" vertex="1" parent="1">
          <mxGeometry x="515" y="450" width="120" height="60" as="geometry" />
        </mxCell>
        <mxCell id="SFmNFA9izupW87xvtLE3-30" value="Logcollector" style="rounded=0;whiteSpace=wrap;html=1;" vertex="1" parent="1">
          <mxGeometry x="230" y="370" width="120" height="60" as="geometry" />
        </mxCell>
        <mxCell id="SFmNFA9izupW87xvtLE3-31" value="Active response" style="rounded=0;whiteSpace=wrap;html=1;" vertex="1" parent="1">
          <mxGeometry x="230" y="440" width="120" height="60" as="geometry" />
        </mxCell>
      </root>
    </mxGraphModel>
  </diagram>
</mxfile>
